<svg width="512" height="512" viewBox="0 0 512 512" fill="none" xmlns="http://www.w3.org/2000/svg">
<rect width="512" height="512" fill="black"/>
<rect x="127.838" y="93.1589" width="48.2989" height="48.2989" fill="white"/>
<rect x="127.838" y="162.127" width="48.2989" height="49.2846" fill="white"/>
<rect x="196.807" y="162.127" width="49.2846" height="49.2846" fill="#3D3D3D"/>
<rect x="266.761" y="162.127" width="49.2846" height="49.2846" fill="#3D3D3D"/>
<rect x="336.715" y="162.127" width="49.2846" height="49.2846" fill="#3D3D3D"/>
<rect x="127.838" y="232.082" width="48.2989" height="49.2846" fill="white"/>
<rect x="196.807" y="232.082" width="49.2846" height="49.2846" fill="#3D3D3D"/>
<rect x="266.761" y="232.082" width="49.2846" height="49.2846" fill="white"/>
<rect x="336.715" y="232.082" width="49.2846" height="49.2846" fill="white"/>
<rect x="127.838" y="302.036" width="48.2989" height="48.2989" fill="white"/>
<rect x="127.838" y="371.005" width="48.2989" height="48.2989" fill="white"/>
<rect x="196.807" y="302.036" width="49.2846" height="48.2989" fill="#3D3D3D"/>
<rect x="196.807" y="371.005" width="49.2846" height="48.2989" fill="white"/>
<rect x="266.761" y="302.036" width="49.2846" height="48.2989" fill="#3D3D3D"/>
<rect x="336.715" y="302.036" width="49.2846" height="48.2989" fill="white"/>
<rect x="266.761" y="371.005" width="49.2846" height="48.2989" fill="white"/>
<rect x="336.715" y="371.005" width="49.2846" height="48.2989" fill="white"/>
<rect x="196.807" y="93.1587" width="49.2846" height="48.2989" fill="white"/>
<rect x="266.761" y="93.1587" width="49.2846" height="48.2989" fill="white"/>
<rect x="336.715" y="93.1587" width="49.2846" height="48.2989" fill="white"/>
</svg>
